<svg xmlns="http://www.w3.org/2000/svg" xmlns:xlink="http://www.w3.org/1999/xlink" xmlns:lucid="lucid" width="1099.19" height="810.27"><g transform="translate(-81.81184895833334 1221)" lucid:page-tab-id="0_0"><path d="M0-1500h1500V0H0z" fill="#fff"/><path d="M340-840h120v120H340z" fill="url(#a)"/><path d="M420.64-814.2c12.74 7.1 20.64 20.56 20.64 35.16 0 12.58-5.72 24.2-15.64 31.93-3.55 2.65-7.42 4.75-11.7 6.2-4.1 1.45-8.46 2.18-12.98 2.18-6.6 0-13.22-1.6-19.03-4.76-13.14-7-21.3-20.64-21.3-35.56 0-.8 0-1.6.1-2.42.96-16.85 12.5-31.37 28.7-36.2 3.7-1.14 7.58-1.7 11.53-1.7 6.94 0 13.7 1.77 19.68 5.16zm4.5 62.58c7.92-6.94 12.35-16.78 12.35-27.42 0-12.82-6.7-24.68-17.67-31.3-2.18.42-4.2.98-6.85 1.95l-1.2-3.54c1.03-.32 2-.65 2.97-.97-4.36-1.78-9.03-2.67-13.8-2.67-2.1 0-4.18.16-6.28.48 1.45.9 2.82 1.87 4.1 2.84l-2.25 2.98c-2.1-1.6-4.27-2.9-7.17-4.44-13.3 4.44-22.9 16.3-24.68 30.16 2.9-.56 5.65-.88 8.7-.96l.1 3.7c-3.23.1-5.98.5-9.04 1.14v.64c0 11.93 5.73 22.9 15.24 29.76-1.6-5.08-2.42-9.92-2.42-14.68 0-2.74.4-5.08.97-7.5.08-.56.24-1.13.32-1.7l3.7.73c-.15.57-.23 1.2-.4 1.78-.48 2.25-.88 4.27-.88 6.7 0 5.63 1.3 11.36 3.8 17.65 5.07 2.58 10.48 3.8 16.2 3.8 3.63 0 7.26-.58 10.64-1.62 1.54-2.9 2.58-5.57 3.55-8.7l3.55.96c-.48 1.85-1.05 3.54-1.77 5.16 1.77-.9 3.38-1.86 4.92-3-.4-1.03-.9-2.08-1.38-3.13l3.3-1.7c.5.97.98 1.94 1.38 2.9zm-7.33-18.07c4.2 0 7.5 3.4 7.5 7.5 0 4.2-3.3 7.5-7.5 7.5-4.1 0-7.5-3.3-7.5-7.5 0-4.1 3.4-7.5 7.5-7.5zm-13.05-28.13c-4.2 0-7.58-3.3-7.58-7.5 0-4.1 3.4-7.5 7.58-7.5 4.1 0 7.5 3.4 7.5 7.5 0 4.2-3.4 7.5-7.5 7.5zm-22.58 7.5c4.2 0 7.5 3.4 7.5 7.5 0 4.2-3.3 7.58-7.5 7.58-4.1 0-7.5-3.4-7.5-7.58 0-4.1 3.4-7.5 7.5-7.5zm29.92-7.74c5.3 8.14 8.3 17 8.94 26.53l-3.8.24c-.56-8.87-3.3-17.1-8.3-24.67zm-.1 28.22l-2.57 2.75c-5.65-5.33-11.2-8.88-17.58-11.05l1.2-3.55c6.94 2.42 13 6.13 18.96 11.85zm-22.4-19.9l-3.16-2.03c2.9-4.44 5.4-7.42 8.55-10.16l2.5 2.82c-2.9 2.5-5.17 5.24-7.9 9.36zm15.15-19.3c-2.1 0-3.8 1.7-3.8 3.72 0 2.1 1.7 3.8 3.8 3.8 2.02 0 3.7-1.7 3.7-3.8 0-2-1.68-3.7-3.7-3.7zm-22.58 30c2.1 0 3.8-1.68 3.8-3.78 0-2.02-1.7-3.7-3.8-3.7-2.02 0-3.7 1.68-3.7 3.7 0 2.1 1.68 3.8 3.7 3.8zm35.64 20.65c2.1 0 3.8-1.7 3.8-3.8 0-2-1.7-3.7-3.8-3.7-2 0-3.7 1.7-3.7 3.7 0 2.1 1.7 3.8 3.7 3.8z" fill="#fff"/><use xlink:href="#b" transform="matrix(1,0,0,1,310,-711) translate(47.16145833333334 21.52777777777778)"/><use xlink:href="#c" transform="matrix(1,0,0,1,310,-711) translate(32.06271701388889 53.79340277777778)"/><path d="M100-840h120v120H100v-120z" stroke="#fff" stroke-opacity="0" fill="#693cc5"/><path d="M143.67-771.3c2.12.76 4.02 1.1 6.27 1.18 1.43.12 2.7-.23 3.86-1.07.92-.86 1.38-1.93 1.32-3.2.12-1.3-.3-2.47-1.25-3.4-1.26-.84-2.58-1.17-4.1-1.05-1.8.02-3.33.1-5.1.32v-2.26l.62-9.87h12.03v2.66H148l-.43 6.7c1.1-.22 2.06-.3 3.2-.3 2.12-.15 3.96.48 5.58 1.86 1.44 1.4 2.12 3.17 2 5.18.07 2.08-.73 3.9-2.33 5.23-1.82 1.45-3.85 2.1-6.18 2-2.3 0-4.2-.38-6.3-1.32zM169.8-780.9H170.4c1.98-.14 3.72.42 5.25 1.7 1.37 1.3 2.02 2.93 1.9 4.8.07 2.06-.75 3.83-2.35 5.14-1.87 1.4-3.9 2.04-6.26 1.92-2.2 0-4.1-.42-6.12-1.3v-2.65c2.06.76 3.92 1.1 6.12 1.18 1.45.12 2.7-.26 3.87-1.1.97-.84 1.44-1.94 1.35-3.2 0-2.67-1.66-4-5.03-4-1.12 0-2.08.04-3.2.16v-2.18l6.94-7.55h-9.7v-2.7h13.44v2.62z" stroke="#fff" stroke-opacity="0" fill="#fff"/><path d="M160-749.6c-.3 0-.57-.06-.82-.24-5.44-3.2-10.56-5.15-16.76-6.4-3.4-.58-14.4-3.2-14.4-11.18 0-3.62 1.42-6.04 3.2-9.06 2.76-4.1 4.17-8.23 4.36-13.15 0-4.74-1.22-8.7-3.84-12.67-.38-.6-.32-1.3.13-1.9l2.56-3.2c.5-.6 1.34-.76 2.04-.35 3.46 2 6.78 2.9 10.8 2.96 4.42.07 8.2-1.1 11.78-3.72.57-.4 1.34-.4 1.85 0 3.65 2.6 7.42 3.8 11.83 3.73 3.97-.05 7.36-1 10.8-2.95.72-.4 1.55-.24 2.06.36l2.55 3.2c.44.54.5 1.3.13 1.9-2.63 3.9-3.78 7.93-3.84 12.67 0 5.68 2.3 9.6 4.35 13.15 1.78 3.02 3.18 5.44 3.18 9.06 0 8-11 10.6-14.38 11.2-6.2 1.23-11.32 3.13-16.76 6.38-.26.18-.5.24-.83.24zm-24.93-53.6c2.5 4.27 3.64 8.48 3.64 13.4 0 6.57-2.6 11.13-4.78 14.74-1.6 2.84-2.7 4.73-2.7 7.46 0 5.68 9.8 7.76 11.7 8.1 6.34 1.25 11.46 3.2 17.02 6.4 5.57-3.2 10.75-5.14 17.02-6.4 1.98-.34 11.76-2.42 11.76-8.1 0-2.73-1.1-4.62-2.75-7.46-2.1-3.6-4.8-8.17-4.8-14.75.07-4.92 1.22-9.13 3.78-13.4l-1.02-1.23c-3.6 1.83-7.1 2.72-11.2 2.72-4.73.05-8.76-1.07-12.8-3.68-3.95 2.6-8.04 3.73-12.78 3.67-4.1 0-7.54-.9-11.2-2.73z" stroke="#fff" stroke-opacity="0" fill="#fff"/><path d="M160.03-740c-.4 0-.72-.08-1.04-.32-5.68-4.08-11.2-6.56-18-8C127.83-750.7 120-758 120-767.58c.16-4.88 1.44-9.04 4.24-13.12 1.76-2.95 3.2-5.5 3.2-9.03-.16-4.88-2.16-8.95-5.84-12.23-.72-.48-.88-1.52-.32-2.24.08 0 .08-.08.08-.08 0-.16 9.44-11.43 11.6-14.3.23-.5.7-.73 1.2-.73.55 0 .95.15 1.35.55 3.03 3.6 6.95 5.6 11.74 5.84 4.48 0 8-2 11.35-6.4.63-.73 1.75-.9 2.47-.25l.24.24c3.37 4.47 6.88 6.38 11.36 6.38 4.8-.24 8.72-2.23 11.75-5.83.4-.4.8-.56 1.37-.56.48 0 .96.23 1.2.7 2.16 2.9 11.5 14.16 11.6 14.32.23.32.4.72.3 1.2 0 .48-.23.8-.55 1.12-3.68 3.28-5.67 7.35-5.83 12.23 0 3.52 1.5 6.08 3.18 9.03 2.8 4.08 4.08 8.24 4.24 13.12 0 9.6-7.83 16.87-21.02 19.26-6.8 1.44-12.3 3.84-18 8-.23.16-.55.32-.87.32zm-35.1-63.4c3.85 3.84 5.76 8.3 5.84 13.67 0 4.4-1.83 7.6-3.67 10.7-1.92 3.45-3.76 6.57-3.76 11.53 0 11.67 14 15.1 18.23 15.9 6.95 1.45 12.63 3.85 18.46 7.84 5.76-4 11.43-6.4 18.4-7.83 4.22-.8 18.2-4.23 18.2-15.9 0-4.96-1.83-8-3.74-11.52-1.85-3.2-3.7-6.4-3.7-10.7.1-5.37 2-9.84 5.84-13.68-2.15-2.56-6.95-8.4-9.5-11.67-3.6 3.5-7.84 5.35-12.8 5.5-5.2 0-9.6-2.15-12.8-6.14-3.26 3.98-7.66 6.14-12.86 6.14-4.95-.16-9.2-2-12.8-5.5-2.3 3.26-7.18 9.1-9.34 11.66z" stroke="#fff" stroke-opacity="0" fill="#fff"/><use xlink:href="#d" transform="matrix(1,0,0,1,70,-711) translate(13.811848958333343 21.52777777777778)"/><use xlink:href="#e" transform="matrix(1,0,0,1,70,-711) translate(105.73893229166666 21.52777777777778)"/><use xlink:href="#f" transform="matrix(1,0,0,1,70,-711) translate(76.38237847222223 53.79340277777778)"/><path d="M176.8-1131.8c9.84 6.12 15.96 17.28 15.96 29.04 0 1.56-1.2 2.76-2.76 2.76h-60c-1.56 0-2.76-1.2-2.76-2.76 0-14.64 9-27 21.6-31.8-5.4-3.6-8.88-9.6-8.88-16.44 0-11.04 9-19.92 20.04-19.92 11.16 0 20.16 8.88 20.16 19.92 0 6.84-3.48 12.84-8.88 16.44 1.92.72 3.72 1.68 5.52 2.76zm27.24-49.08c9.84 6.12 15.96 17.16 15.96 29.04 0 1.56-1.2 2.76-2.76 2.76h-30v-5.52h27.12c-.72-8.88-5.64-17.04-13.2-21.72-4.2-2.52-9-3.96-13.92-3.96-6.24 0-12.36 2.28-17.28 6.48l-3.6-4.08c3-2.52 6.24-4.44 9.72-5.76-5.4-3.6-8.88-9.6-8.88-16.44 0-11.04 9-19.92 20.16-19.92 11.04 0 20.04 8.88 20.04 19.92 0 6.84-3.48 12.84-8.88 16.44 1.92.72 3.84 1.68 5.52 2.76zm-71.28 26.28v5.52h-30c-1.56 0-2.76-1.2-2.76-2.76 0-14.64 9-27 21.6-31.8-5.4-3.6-9-9.6-9-16.44 0-11.04 9.12-19.92 20.16-19.92 11.16 0 20.16 8.88 20.16 19.92 0 6.84-3.6 12.84-8.88 16.44 1.92.72 3.72 1.68 5.52 2.76 1.44.84 2.76 1.8 4.08 3l-3.6 4.08c-1.08-.96-2.16-1.68-3.36-2.52-4.2-2.52-9-3.96-13.92-3.96-14.16 0-25.8 11.28-27.12 25.68zm.12 49.2h54.24c-.84-9-5.76-17.16-13.2-21.84-4.2-2.52-9-3.96-13.92-3.96-14.16 0-25.8 11.28-27.12 25.8zm-14.76-94.68c0 7.92 6.6 14.4 14.64 14.4 8.16 0 14.64-6.48 14.64-14.4 0-8.04-6.48-14.52-14.64-14.52-8.04 0-14.64 6.48-14.64 14.52zm54.48 0c0 7.92 6.6 14.4 14.76 14.4 8.04 0 14.64-6.48 14.64-14.4 0-8.04-6.6-14.52-14.64-14.52-8.16 0-14.76 6.48-14.76 14.52zM145.36-1151c0 7.92 6.6 14.4 14.64 14.4 8.16 0 14.76-6.48 14.76-14.4 0-8.04-6.6-14.4-14.76-14.4-8.04 0-14.64 6.36-14.64 14.4z" stroke="#000" stroke-opacity="0" fill="#242f3e"/><path d="M127.64-1106.87l.34-2.65.12-.92 4.64-38.75-31.1-2.53 7.3-21.56 17.2-10.95-11.03-14.3 5.1-14.18 11.6-5.07 15.33 7.03 3.6 12.57-9.86 15 12.76 5.18 12.88.12 12.66-6-9.05-12.8 4.07-15.9 15.2-4.63 13.46 8.77 1.86 13.6-9.4 10.96 17.05 13.38 5.33 18.8-30.28 2.53 4.87 40.72-1.62 6h-62.2z" stroke="#000" stroke-opacity="0" fill-opacity="0"/><use xlink:href="#g" transform="matrix(1,0,0,1,70,-1091) translate(59.34136284722223 21.52777777777778)"/><path d="M340-600h120v120H340v-120z" stroke="#000" stroke-opacity="0" fill="#dd344c"/><path d="M393.53-541.1c.42.4.5.94.42 1.4l-1.5 7.1 6.8-4.2c.4-.24 1.1-.24 1.5 0l6.8 4.2-1.5-7.1c-.1-.53 0-1 .42-1.4l6.05-5.92-7.9-1.17c-.5 0-.92-.3-1.18-.77l-3.44-7.18-3.6 7.18c-.18.47-.6.78-1.1.86l-7.9 1.08 6.13 5.93zm-4.8 11.32l2.1-9.75-7.7-7.4c-.43-.4-.52-1.03-.35-1.57.17-.55.6-.94 1.18-1.02l10.16-1.48 4.54-9.2c.25-.47.75-.86 1.34-.78.6 0 1.1.3 1.34.78l4.46 9.2 10.16 1.48c.5.08 1 .47 1.18 1.02.16.54.08 1.1-.34 1.48l-7.64 7.5 2 9.66c.18.62-.07 1.25-.58 1.56-.5.4-1.17.4-1.68.08l-8.9-5.54-9 5.54c-.24.15-.5.23-.83.23-.25 0-.6-.07-.84-.3-.5-.3-.67-.94-.6-1.48zm-27.7-38.7h77.95v-7.56h-77.96v7.57zM442-577.5v75.04c0 .78-.67 1.48-1.5 1.48h-9v-2.96h7.48v-61.55h-77.96v61.54h56.96v2.96H359.5c-.83 0-1.5-.7-1.5-1.48v-75.04c0-.78.67-1.48 1.5-1.48h81c.83 0 1.5.7 1.5 1.48zm-66.02 66h8.98v-2.97h-8.98v2.97zm15.03 0h21v-2.97h-21v2.97zm-15.02-7.5h8.98v-2.96h-8.98v2.96zm15.03 0h33.02v-2.96h-33v2.96z" stroke="#000" stroke-opacity="0" fill="#fff"/><use xlink:href="#h" transform="matrix(1,0,0,1,310,-471) translate(6.981336805555557 21.52777777777778)"/><use xlink:href="#i" transform="matrix(1,0,0,1,310,-471) translate(63.45920138888889 21.52777777777778)"/><use xlink:href="#j" transform="matrix(1,0,0,1,310,-471) translate(6.775173611111114 53.79340277777778)"/><use xlink:href="#k" transform="matrix(1,0,0,1,310,-471) translate(106.13498263888889 53.79340277777778)"/><path d="M580-840h120v120H580v-120z" stroke="#000" stroke-opacity="0" fill="#7aa116"/><path d="M671.24-775.63l.56-4.12c5.33 3.2 5.4 4.54 5.4 4.54s-.96.74-5.96-.43zm-2.9-.84c-9.22-2.77-21.98-8.65-27.15-11.1v-.07c0-1.94-1.62-3.62-3.64-3.62s-3.63 1.68-3.63 3.62c0 2 1.6 3.6 3.63 3.6.9 0 1.7-.33 2.26-.83 6.14 2.85 18.82 8.65 28.1 11.42l-3.7 25.8v.24c0 2.26-10.1 6.38-26.5 6.38-16.64 0-26.8-4.12-26.8-6.4v-.24l-7.68-55.78c6.62 4.54 20.83 6.98 34.48 6.98 13.57 0 27.78-2.44 34.4-6.98l-3.8 26.97zm-65.9-32.85c.15-1.93 11.46-9.66 35.28-9.66s35.13 7.73 35.3 9.66v.68c-1.38 4.45-16.08 9.15-35.3 9.15-19.3 0-34-4.7-35.3-9.14v-.68zm73.56.1c0-5.22-14.94-12.78-38.28-12.78-23.34 0-38.28 7.56-38.28 12.77l.16 1.1 8.32 60.8c.16 6.8 18.33 9.33 29.8 9.33 14.2 0 29.32-3.28 29.48-9.32l3.63-25.37c2.02.5 3.64.76 4.93.76 1.77 0 3-.42 3.7-1.34.66-.67.82-1.5.66-2.44-.32-2.1-2.83-4.36-7.83-7.22l3.54-25.12.16-1.17z" stroke="#000" stroke-opacity="0" fill="#fff"/><use xlink:href="#d" transform="matrix(1,0,0,1,550,-711) translate(8.511284722222229 21.52777777777778)"/><use xlink:href="#l" transform="matrix(1,0,0,1,550,-711) translate(100.43836805555554 21.52777777777778)"/><use xlink:href="#m" transform="matrix(1,0,0,1,550,-711) translate(6.1187065972222285 53.79340277777778)"/><use xlink:href="#n" transform="matrix(1,0,0,1,550,-711) translate(94.43250868055556 53.79340277777778)"/><use xlink:href="#o" transform="matrix(1,0,0,1,550,-711) translate(21.93901909722223 86.05902777777777)"/><use xlink:href="#p" transform="matrix(1,0,0,1,550,-711) translate(121.97157118055554 86.05902777777777)"/><path d="M160.97-856h-1.94v-211h1.94zm0-232h-1.94v-11h1.94z" stroke="#3a414a" stroke-width=".05" fill="#3a414a"/><path d="M160.97-1098.97h-1.94v-1.03h1.94z" fill="#3a414a"/><path stroke="#3a414a" stroke-width=".05" fill="#3a414a"/><path d="M160-842l-7.5-13h15z" fill="#3a414a"/><path d="M160-840.05l-9.2-15.92h18.4zm-5.8-13.97l5.8 10.07 5.8-10.06z" stroke="#3a414a" stroke-width=".05" fill="#3a414a"/><path d="M221-780h103" stroke="#3a414a" stroke-width="2" fill="none"/><path d="M221.03-779.02H220V-781h1.03z" stroke="#3a414a" stroke-width=".05" fill="#3a414a"/><path d="M338-780l-13 7.5v-15z" stroke="#3a414a" stroke-width="2" fill="#3a414a"/><path d="M461-780h103" stroke="#3a414a" stroke-width="2" fill="none"/><path d="M461.03-779.02H460V-781h1.03z" stroke="#3a414a" stroke-width=".05" fill="#3a414a"/><path d="M578-780l-13 7.5v-15z" stroke="#3a414a" stroke-width="2" fill="#3a414a"/><path d="M400.98-616h-1.96v-38.73h1.96zm0-92h-1.96v-11h1.96z" stroke="#3a414a" stroke-width=".05" fill="#3a414a"/><path d="M400.98-718.97h-1.96V-720h1.96z" fill="#3a414a"/><path stroke="#3a414a" stroke-width=".05" fill="#3a414a"/><path d="M400-602l-7.5-13h15z" fill="#3a414a"/><path d="M400-600.05l-9.2-15.92h18.4zm-5.8-13.97l5.8 10.07 5.8-10.06z" stroke="#3a414a" stroke-width=".05" fill="#3a414a"/><path d="M820-1220h120v120H820v-120z" stroke="#000" stroke-opacity="0" fill="#ed7100"/><path d="M862.08-1121.02h-18.63l20.57-43 9.4 19.14-11.34 23.86zm3.32-47.13c-.24-.5-.8-.84-1.38-.84-.56 0-1.13.35-1.38.85l-22.92 47.97c-.24.5-.24 1 .08 1.5.25.43.73.68 1.3.68h21.95c.57 0 1.05-.34 1.3-.84l12.06-25.37c.18-.43.18-.93 0-1.27l-11-22.68zm52.16 47.13H899l-29.63-62.16c-.25-.5-.8-.84-1.38-.84H855.9v-14.96h23.74l29.56 62.16c.24.5.73.84 1.3.84h7.04v14.96zm1.46-17.98h-7.53l-29.58-62.16c-.24-.5-.73-.84-1.3-.84H854.4c-.8 0-1.46.67-1.46 1.5v18c0 .4.1.74.4 1.08.25.25.66.42 1.06.42h12.64l29.73 62.16c.24.5.8.84 1.37.84h20.9c.9 0 1.54-.67 1.54-1.5v-18c0-.83-.65-1.5-1.54-1.5z" stroke="#000" stroke-opacity="0" fill="#fff"/><use xlink:href="#q" transform="matrix(1,0,0,1,790,-1091) translate(19.660373263888886 21.52777777777778)"/><use xlink:href="#r" transform="matrix(1,0,0,1,790,-1091) translate(76.13823784722223 21.52777777777778)"/><path d="M580-1220h120v120H580v-120z" stroke="#fff" stroke-opacity="0" fill="#693cc5"/><path d="M657.6-1121.58c-.35 0-.64-.15-.93-.3-.43-.3-.67-.77-.67-1.3v-73.63c0-.55.3-1.1.77-1.4.48-.3 1.08-.3 1.6-.07l20.8 10.22c.56.23.9.77.9 1.38v56.56c.02.76-.4 1.37-1.1 1.6l-20.8 6.92h-.56zm1.63-72.62v68.78l17.6-5.84v-54.4zM622.4-1121.58h-.52l-20.8-6.92c-.67-.23-1.1-.92-1.08-1.6v-56.57c0-.6.33-1.15.9-1.38l20.8-10.22c.52-.23 1.1-.23 1.6.08.48.32.75.85.75 1.4v73.6c0 .54-.24 1-.67 1.3-.3.24-.6.32-1 .32zm-19.2-9.6l17.6 5.83v-68.85l-17.6 8.6z" stroke="#fff" stroke-opacity="0" fill="#fff"/><path d="M656-1176h-4.8v-3.2h4.8zm-9.6 0h-4.8v-3.2h4.8zm-9.6 0H632v-3.2h4.8zm-9.6 0h-4.8v-3.2h4.8zM656-1140.8h-4.8v-3.2h4.8zm-9.6 0h-4.8v-3.2h4.8zm-9.6 0H632v-3.2h4.8zm-9.6 0h-4.8v-3.2h4.8zM632.98-1154.5l-6.02-5.13c-.67-.57-.75-1.6-.18-2.26l.18-.17 6-5.13 2.08 2.43-4.58 3.97 4.58 3.92zM647.04-1154.5l-2.08-2.42 4.57-3.88-4.6-3.9 2.1-2.5 6 5.12c.68.57.76 1.6.2 2.26-.07.06-.12.12-.2.17z" stroke="#fff" stroke-opacity="0" fill="#fff"/><path d="M635.3-1151.13l6.35-18.8 3.03 1.03-6.35 18.8-3.04-1.03z" stroke="#fff" stroke-opacity="0" stroke-width=".32" fill="#fff"/><use xlink:href="#s" transform="matrix(1,0,0,1,550,-1091) translate(26.290147569444457 21.52777777777778)"/><use xlink:href="#t" transform="matrix(1,0,0,1,550,-1091) translate(118.21723090277777 21.52777777777778)"/><use xlink:href="#u" transform="matrix(1,0,0,1,550,-1091) translate(44.25347222222222 53.79340277777778)"/><path d="M340-1220h120v120H340v-120z" stroke="#000" stroke-opacity="0" fill="#dd344c"/><path d="M365.48-1166.32h19.32v-2.96h-19.32v2.96zm66.6 21.7l-10 9.97-4.52-4.52-2.1 2.1 5.54 5.54c.34.3.67.47 1.1.47.33 0 .75-.16 1-.47l11.1-11-2.1-2.1zm6.8 8.18c-.32 2.8-1.42 5.38-3.26 7.48-1.26 1.56-2.94 2.8-4.7 3.67-2.44 1.1-5.05 1.57-7.74 1.26-2.6-.4-5.04-1.4-7.05-2.97-3.95-3.13-5.88-7.96-5.3-12.88.6-4.68 3.37-8.73 7.57-10.92 2-1 4.2-1.56 6.46-1.56.6 0 1.18 0 1.68.08 4.7.55 8.82 3.43 10.92 7.65 1.26 2.5 1.77 5.38 1.43 8.2zm1.27-9.52c-2.6-5.15-7.56-8.58-13.2-9.28-3.43-.4-6.87.23-9.9 1.8-5.04 2.57-8.48 7.56-9.15 13.17-.76 6 1.68 11.86 6.38 15.6 2.44 1.95 5.38 3.12 8.57 3.5.67.1 1.34.17 2 .17 2.53 0 5.05-.55 7.32-1.64 2.2-1 4.12-2.57 5.7-4.37 2.2-2.58 3.63-5.7 3.96-9.13.42-3.36-.17-6.8-1.68-9.83zm-59.8-11.4h5.96v-2.95h-5.96v2.95zm-14.87 0h11.84v-2.95h-11.84v2.95zm-1.35-38.68h66.6c1.78 0 3.2 1.72 3.2 3.9v11h-4.45v-7.5c0-.77-.67-1.47-1.5-1.47H393.7c-.76 0-1.43.7-1.43 1.47v7.5h-31.33v-11c0-2.1 1.5-3.9 3.2-3.9zm46.8 14.43c3.43 0 6.2 2.8 6.2 6.23 0 2.27-1.25 4.3-3.2 5.4-1.92 1-4.2 1-6.12 0-1.92-1.1-3.18-3.13-3.18-5.4 0-3.43 2.77-6.24 6.3-6.24zm-50 32.3v-28.87h31.34v25.27c0 .78.67 1.48 1.43 1.48h15.62v-2.96H396.9c.08-5.93 4.02-11.08 9.74-12.72 2.68 1.17 5.8 1.25 8.48 0 3.2.94 6.05 3.04 7.8 6l2.53-1.55c-1.76-2.97-4.53-5.3-7.64-6.63 1.44-1.64 2.36-3.82 2.36-6.1 0-5.06-4.2-9.2-9.24-9.2-5.12 0-9.32 4.14-9.32 9.2 0 2.28.92 4.38 2.35 6.02-3.95 1.72-7.06 4.84-8.74 8.74v-26.45h31.26v23.8h3.02v-14.9h4.46v22.3h3.02v-36.27c0-3.82-2.77-6.86-6.22-6.86h-66.6c-3.37 0-6.14 3.04-6.14 6.86v42.83c0 3.73 2.77 6.77 6.13 6.77h40.07v-2.96h-40.07c-1.68 0-3.2-1.7-3.2-3.8z" stroke="#000" stroke-opacity="0" fill="#fff"/><use xlink:href="#s" transform="matrix(1,0,0,1,310,-1091) translate(2.999131944444457 21.52777777777778)"/><use xlink:href="#v" transform="matrix(1,0,0,1,310,-1091) translate(94.92621527777777 21.52777777777778)"/><path d="M1060-1220h120v120h-120v-120z" stroke="#fff" stroke-opacity="0" stroke-width="2" fill="#3b48cc"/><path d="M1140.4-1155.22l-10.6 10.55c2-.56 3.65-1.2 5.5-2.24 1.1.63 1.68 1.67 1.9 2.87 0 2.96-6.2 6.16-15.4 7.43-3.05.4-5.55.56-8.6.56h-1.58c-12.95-.24-22.42-4.3-22.42-8 .17-1.2.82-2.15 1.9-2.87 5.02 2.8 13.18 4.47 22.1 4.47h.17l.92-3.2h-1.1c-8.8 0-16.98-1.76-21.28-4.47-1.74-1.12-2.72-2.4-2.72-3.44v-7.43c4.9 3.75 14.64 5.67 24 5.67 1.25 0 2.5 0 3.76-.08l.92-3.2c-1.63.08-3.1.16-4.68.16-13.7 0-24-4.23-24-8 .17-1.27.82-2.23 1.9-2.87 4.42 2.5 11.22 4 18.9 4.4l.1-3.2c-7.56-.4-14.42-2-18.18-4.47-1.74-1.04-2.66-2.3-2.72-3.43v-7.36c4.9 3.76 14.64 5.68 24 5.68h.33l1.74-3.2h-2.07c-13.7 0-24-4.16-24-8 0-3.75 10.3-8 24-8 4.85 0 8.98.5 13.72 1.6h8.8c-4.83-2.94-13.1-4.78-22.52-4.78-13.17 0-27.2 3.9-27.2 11.2v12.86c.1 1.9.92 3.5 2.44 4.7-1.52 1.3-2.34 2.9-2.45 4.8v12.8c.1 2 .92 3.6 2.44 4.88-1.52 1.2-2.34 2.8-2.45 4.8v13.1c.43 7.04 14.2 10.8 27.2 10.8s26.78-3.77 27.2-10.88V-1144.12c-.04-1.9-.9-3.6-2.44-4.8v.02c1.53-1.2 2.34-2.88 2.45-4.8zm-3.2 23.98c0 3.76-10.28 8-24 8-13.7 0-24-4.16-24-8v-7.35c4.9 3.68 14.64 5.68 24 5.68s19.1-2 24-5.67z" stroke="#fff" stroke-opacity="0" stroke-width="2" fill="#fff"/><path d="M1096-1175.97c0 1.1-.9 2-2 2s-2-.9-2-2 .9-2 2-2 2 .9 2 2zM1096-1153.57c0 1.1-.9 2-2 2s-2-.9-2-2 .9-2 2-2 2 .9 2 2zM1096-1131.17c0 1.1-.9 2-2 2s-2-.9-2-2 .9-2 2-2 2 .9 2 2zM1117.2-1137.63c-.3 0-.53-.06-.82-.22-.64-.38-.92-1.14-.72-1.85l8.98-29.95h-9.06c-.88.06-1.6-.65-1.6-1.58 0-.27.04-.54.2-.76l9.58-19.2c.28-.56.8-.88 1.45-.88h20.82c.88-.06 1.6.65 1.64 1.52.04.22 0 .38-.04.6l-4.13 12.25h8.97c.88.05 1.6.76 1.6 1.63 0 .43-.16.76-.44 1.1l-35.2 36.8c-.32.38-.72.54-1.24.54zm1-35.18h8.6c.53 0 .97.2 1.3.6.27.43.4.92.23 1.4l-7.7 25.6 28.03-29.24h-7.46c-.88 0-1.64-.65-1.68-1.52 0-.22 0-.44.08-.6l4.1-12.3h-17.6z" stroke="#fff" stroke-opacity="0" stroke-width="2" fill="#fff"/><g><use xlink:href="#w" transform="matrix(1,0,0,1,1030,-1091) translate(47.16145833333334 21.52777777777778)"/><use xlink:href="#x" transform="matrix(1,0,0,1,1030,-1091) translate(31.248914930555564 53.79340277777778)"/></g><path d="M701.5-1160h97.88" stroke="#3a414a" stroke-width="3" fill="none"/><path d="M701.54-1158.53H700v-2.94h1.54z" stroke="#3a414a" stroke-width=".05" fill="#3a414a"/><path d="M815.15-1160l-14.27 4.63v-9.27z" stroke="#3a414a" stroke-width="3" fill="#3a414a"/><path d="M941.5-1160h97.88" stroke="#3a414a" stroke-width="3" fill="none"/><path d="M941.54-1158.53H940v-2.94h1.54z" stroke="#3a414a" stroke-width=".05" fill="#3a414a"/><path d="M1055.15-1160l-14.27 4.63v-9.27z" stroke="#3a414a" stroke-width="3" fill="#3a414a"/><path d="M461.5-1160h97.88" stroke="#3a414a" stroke-width="3" fill="none"/><path d="M461.54-1158.53H460v-2.94h1.54z" stroke="#3a414a" stroke-width=".05" fill="#3a414a"/><path d="M575.15-1160l-14.27 4.63v-9.27z" stroke="#3a414a" stroke-width="3" fill="#3a414a"/><path d="M220.4-1160h98.98" stroke="#3a414a" stroke-width="3" fill="none"/><path d="M220.43-1158.53h-1.18l-.72-2.94h1.9z" stroke="#3a414a" stroke-width=".05" fill="#3a414a"/><path d="M335.15-1160l-14.27 4.63v-9.27z" stroke="#3a414a" stroke-width="3" fill="#3a414a"/><defs><linearGradient gradientUnits="userSpaceOnUse" id="a" x1="340" y1="-720" x2="460" y2="-840"><stop offset="0%" stop-color="#4d27a8"/><stop offset="100%" stop-color="#a166ff"/></linearGradient><path d="M52 0l541-1490h220L1361 0h-200l-149-416H398L254 0H52zm404-582h497c-103-290-145-390-251-756-108 377-145 460-246 756" id="y"/><path d="M158 0v-1118h175l1 205c55-151 181-225 313-225 147 0 245 90 285 228 53-141 190-228 352-228 194 0 352 125 352 384V0h-181v-749c0-161-105-225-225-225-151 0-243 103-243 244V0H807v-767c0-124-93-207-219-207-131 0-250 92-250 270V0H158" id="z"/><path d="M471 26C259 26 90-98 90-318c0-256 228-303 435-329 202-27 287-16 287-108 0-139-79-219-234-219-161 0-248 86-283 164l-173-57c86-203 278-265 451-265 150 0 419 46 419 395V0H815v-152h-12C765-73 660 26 471 26zm31-159c199 0 310-134 310-271v-155c-30 35-226 55-295 64-131 17-246 59-246 186 0 116 97 176 231 176" id="A"/><path d="M126 0v-134l627-806v-11H146v-167h839v143L376-178v11h629V0H126" id="B"/><path d="M613 24c-304 0-509-231-509-576 0-350 205-580 509-580 305 0 511 230 511 580 0 345-206 576-511 576zm0-161c226 0 329-195 329-415 0-222-103-419-329-419-223 0-326 196-326 419 0 220 103 415 326 415" id="C"/><path d="M338-670V0H158v-1118h173l1 207c72-158 192-221 342-221 226 0 378 139 378 422V0H872v-695c0-172-96-275-252-275-161 0-282 109-282 300" id="D"/><g id="b"><use transform="matrix(0.010850694444444444,0,0,0.010850694444444444,0,0)" xlink:href="#y"/><use transform="matrix(0.010850694444444444,0,0,0.010850694444444444,15.33203125,0)" xlink:href="#z"/><use transform="matrix(0.010850694444444444,0,0,0.010850694444444444,34.79817708333333,0)" xlink:href="#A"/><use transform="matrix(0.010850694444444444,0,0,0.010850694444444444,47.27647569444444,0)" xlink:href="#B"/><use transform="matrix(0.010850694444444444,0,0,0.010850694444444444,59.22309027777778,0)" xlink:href="#C"/><use transform="matrix(0.010850694444444444,0,0,0.010850694444444444,72.54774305555554,0)" xlink:href="#D"/></g><path d="M783 20c-382 0-661-292-661-764 0-473 279-766 661-766 302 0 548 182 601 489h-190c-42-204-217-313-411-313-268 0-476 208-476 590 0 381 209 588 476 588 195 0 369-110 411-313h190c-52 303-296 489-601 489" id="E"/><path d="M338-1490V0H158v-1490h180" id="F"/><path d="M537 14c-226 0-379-139-379-422v-710h180v695c0 172 97 275 253 275 160 0 281-109 281-300v-670h181V0H879v-209C806-46 684 14 537 14" id="G"/><path d="M577 24c-279 0-473-224-473-580 0-354 195-576 474-576 218 0 287 134 324 193h14v-551h180V0H922v-173h-20C865-111 790 24 577 24zm27-161c203 0 314-172 314-421 0-247-108-413-314-413-212 0-317 181-317 413 0 235 108 421 317 421" id="H"/><path d="M180 0v-1490h901v168H370v510h643v168H370V0H180" id="I"/><path d="M158 0v-1118h174v172h12c41-113 157-188 290-188 26 0 70 2 91 3v181c-11-2-60-10-108-10-161 0-279 109-279 260V0H158" id="J"/><path d="M598-1118v154H368v674c0 100 37 144 132 144 23 0 62-6 92-12L629-6c-37 13-88 20-134 20-193 0-307-107-307-290v-688H20v-154h168v-266h180v266h230" id="K"/><g id="c"><use transform="matrix(0.010850694444444444,0,0,0.010850694444444444,0,0)" xlink:href="#E"/><use transform="matrix(0.010850694444444444,0,0,0.010850694444444444,16.23263888888889,0)" xlink:href="#F"/><use transform="matrix(0.010850694444444444,0,0,0.010850694444444444,21.614583333333336,0)" xlink:href="#C"/><use transform="matrix(0.010850694444444444,0,0,0.010850694444444444,34.939236111111114,0)" xlink:href="#G"/><use transform="matrix(0.010850694444444444,0,0,0.010850694444444444,48.07942708333333,0)" xlink:href="#H"/><use transform="matrix(0.010850694444444444,0,0,0.010850694444444444,61.68619791666667,0)" xlink:href="#I"/><use transform="matrix(0.010850694444444444,0,0,0.010850694444444444,74.15364583333334,0)" xlink:href="#J"/><use transform="matrix(0.010850694444444444,0,0,0.010850694444444444,82.1506076388889,0)" xlink:href="#C"/><use transform="matrix(0.010850694444444444,0,0,0.010850694444444444,95.47526041666666,0)" xlink:href="#D"/><use transform="matrix(0.010850694444444444,0,0,0.010850694444444444,108.60460069444444,0)" xlink:href="#K"/></g><g id="d"><use transform="matrix(0.010850694444444444,0,0,0.010850694444444444,0,0)" xlink:href="#y"/><use transform="matrix(0.010850694444444444,0,0,0.010850694444444444,15.33203125,0)" xlink:href="#z"/><use transform="matrix(0.010850694444444444,0,0,0.010850694444444444,34.79817708333333,0)" xlink:href="#A"/><use transform="matrix(0.010850694444444444,0,0,0.010850694444444444,47.27647569444444,0)" xlink:href="#B"/><use transform="matrix(0.010850694444444444,0,0,0.010850694444444444,59.22309027777778,0)" xlink:href="#C"/><use transform="matrix(0.010850694444444444,0,0,0.010850694444444444,72.54774305555554,0)" xlink:href="#D"/></g><path d="M180 0v-1490h510c348 0 508 194 508 460 0 198-88 351-276 417L1256 0h-220L726-579c-117 2-238 0-356 1V0H180zm190-747h312c235 0 327-108 327-283 0-177-92-293-329-293H370v576" id="L"/><path d="M628 24c-324 0-524-230-524-574 0-343 198-582 503-582 237 0 487 146 487 559v75H286c9 234 145 362 343 362 132 0 231-58 273-172l174 48C1024-91 857 24 628 24zM287-650h624c-17-190-120-322-304-322-192 0-309 151-320 322" id="M"/><g id="e"><use transform="matrix(0.010850694444444444,0,0,0.010850694444444444,0,0)" xlink:href="#L"/><use transform="matrix(0.010850694444444444,0,0,0.010850694444444444,13.975694444444445,0)" xlink:href="#C"/><use transform="matrix(0.010850694444444444,0,0,0.010850694444444444,27.30034722222222,0)" xlink:href="#G"/><use transform="matrix(0.010850694444444444,0,0,0.010850694444444444,40.44053819444444,0)" xlink:href="#K"/><use transform="matrix(0.010850694444444444,0,0,0.010850694444444444,47.49348958333333,0)" xlink:href="#M"/></g><path d="M626 20c-262 0-458-168-468-396h184c12 133 134 229 284 229 180 0 311-137 311-326 0-192-136-335-323-335-92 0-196 33-255 78l-178-22 88-738h784v167H429l-51 435h8c61-51 160-87 263-87 273 0 474 211 474 499 0 286-210 496-497 496" id="N"/><path d="M635 20c-292 0-500-160-510-396h192c11 142 145 229 315 229 187 0 323-105 323-260 0-161-125-274-346-274H488v-165h121c174 0 294-100 294-254 0-148-104-245-266-245-152 0-291 85-297 230H157c8-234 222-395 484-395 278 0 448 188 448 400 0 168-95 291-247 336v12c190 31 301 169 301 357 0 244-216 425-508 425" id="O"/><g id="f"><use transform="matrix(0.010850694444444444,0,0,0.010850694444444444,0,0)" xlink:href="#N"/><use transform="matrix(0.010850694444444444,0,0,0.010850694444444444,13.509114583333332,0)" xlink:href="#O"/></g><path d="M763 24c-353 0-583-224-583-531v-983h190v968c0 214 149 370 393 370 243 0 391-156 391-370v-968h190v983c0 307-230 531-581 531" id="P"/><path d="M538 24C308 24 148-78 108-271l171-41c32 123 123 178 257 178 156 0 256-77 256-169 0-77-54-128-164-154l-186-44c-203-48-300-148-300-305 0-192 176-326 414-326 230 0 351 112 402 269l-163 42c-31-80-94-158-238-158-133 0-233 69-233 162 0 83 57 129 188 160l169 40c203 48 298 149 298 302 0 196-179 339-441 339" id="Q"/><g id="g"><use transform="matrix(0.010850694444444444,0,0,0.010850694444444444,0,0)" xlink:href="#P"/><use transform="matrix(0.010850694444444444,0,0,0.010850694444444444,16.536458333333332,0)" xlink:href="#Q"/><use transform="matrix(0.010850694444444444,0,0,0.010850694444444444,28.266059027777775,0)" xlink:href="#M"/><use transform="matrix(0.010850694444444444,0,0,0.010850694444444444,41.22178819444444,0)" xlink:href="#J"/><use transform="matrix(0.010850694444444444,0,0,0.010850694444444444,49.58767361111111,0)" xlink:href="#Q"/></g><path d="M458 0L52-1490h194c108 439 233 855 324 1313 92-459 221-873 331-1313h216c110 438 234 854 330 1307 92-455 216-869 323-1307h196L1558 0h-221l-256-944c-26-95-50-200-73-331-22 122-44 223-73 331L680 0H458" id="R"/><path d="M657 26c-323 0-524-166-541-416h195c15 169 171 246 346 246 202 0 356-106 356-265 5-203-294-238-475-293-239-73-380-191-380-389 0-252 224-419 512-419 294 0 499 171 508 396H992c-17-145-151-228-328-228-193 0-321 102-321 242 0 156 175 211 284 241l149 41c160 44 422 134 422 412 0 244-197 432-541 432" id="S"/><g id="h"><use transform="matrix(0.010850694444444444,0,0,0.010850694444444444,0,0)" xlink:href="#y"/><use transform="matrix(0.010850694444444444,0,0,0.010850694444444444,14.073350694444445,0)" xlink:href="#R"/><use transform="matrix(0.010850694444444444,0,0,0.010850694444444444,35.970052083333336,0)" xlink:href="#S"/></g><path d="M158 0v-1118h180V0H158zm91-1301c-68 0-125-53-125-119s57-119 125-119c69 0 126 53 126 119s-57 119-126 119" id="T"/><path d="M678-1118v154H420V0H240v-964H20v-154h220v-149c0-194 155-293 318-293 85 0 141 18 168 30l-50 154c-19-6-47-17-97-17-111 0-159 58-159 166v109h258" id="U"/><path d="M613 24c-304 0-509-231-509-576 0-350 205-580 509-580 216 0 392 114 453 309l-173 49c-33-115-133-197-280-197-223 0-326 196-326 419 0 220 103 415 326 415 150 0 252-85 285-206l172 49C1010-95 832 24 613 24" id="V"/><g id="i"><use transform="matrix(0.010850694444444444,0,0,0.010850694444444444,0,0)" xlink:href="#E"/><use transform="matrix(0.010850694444444444,0,0,0.010850694444444444,16.23263888888889,0)" xlink:href="#M"/><use transform="matrix(0.010850694444444444,0,0,0.010850694444444444,29.18836805555556,0)" xlink:href="#J"/><use transform="matrix(0.010850694444444444,0,0,0.010850694444444444,37.90147569444444,0)" xlink:href="#K"/><use transform="matrix(0.010850694444444444,0,0,0.010850694444444444,45.17144097222222,0)" xlink:href="#T"/><use transform="matrix(0.010850694444444444,0,0,0.010850694444444444,50.553385416666664,0)" xlink:href="#U"/><use transform="matrix(0.010850694444444444,0,0,0.010850694444444444,58.77821180555555,0)" xlink:href="#T"/><use transform="matrix(0.010850694444444444,0,0,0.010850694444444444,64.16015625,0)" xlink:href="#V"/><use transform="matrix(0.010850694444444444,0,0,0.010850694444444444,77.07248263888889,0)" xlink:href="#A"/><use transform="matrix(0.010850694444444444,0,0,0.010850694444444444,89.55078125,0)" xlink:href="#K"/><use transform="matrix(0.010850694444444444,0,0,0.010850694444444444,96.60373263888889,0)" xlink:href="#M"/></g><path d="M180 0v-1490h270l367 940c28 72 75 218 110 339 35-117 81-264 110-339l362-940h271V0h-187c2-448-5-837 7-1287-157 497-311 829-483 1287H842C666-458 514-784 354-1284c12 438 5 843 7 1284H180" id="W"/><path d="M611 442c-248 0-391-105-460-228l146-94c47 65 117 165 314 165 178 0 307-82 307-266v-224h-17C863-141 792-18 576-18c-268 0-472-195-472-546 0-346 197-568 476-568 216 0 288 133 326 193h17v-179h175V29c0 289-215 413-487 413zm-5-620c203 0 314-146 314-390 0-237-108-403-314-403-213 0-319 180-319 403 0 230 109 390 319 390" id="X"/><g id="j"><use transform="matrix(0.010850694444444444,0,0,0.010850694444444444,0,0)" xlink:href="#W"/><use transform="matrix(0.010850694444444444,0,0,0.010850694444444444,20.07378472222222,0)" xlink:href="#A"/><use transform="matrix(0.010850694444444444,0,0,0.010850694444444444,32.55208333333333,0)" xlink:href="#D"/><use transform="matrix(0.010850694444444444,0,0,0.010850694444444444,45.68142361111111,0)" xlink:href="#A"/><use transform="matrix(0.010850694444444444,0,0,0.010850694444444444,58.15972222222221,0)" xlink:href="#X"/><use transform="matrix(0.010850694444444444,0,0,0.010850694444444444,71.78819444444443,0)" xlink:href="#M"/><use transform="matrix(0.010850694444444444,0,0,0.010850694444444444,84.7439236111111,0)" xlink:href="#J"/></g><path d="M218-607c0-325 108-727 258-974h175c-155 315-250 682-250 974 0 265 78 531 250 886H476C306-10 218-315 218-607" id="Y"/><path d="M96 279C273-86 346-350 346-607c0-292-95-659-250-974h175c150 246 258 650 258 974 0 297-91 602-258 886H96" id="Z"/><g id="k"><use transform="matrix(0.010850694444444444,0,0,0.010850694444444444,0,0)" xlink:href="#Y"/><use transform="matrix(0.010850694444444444,0,0,0.010850694444444444,8.10546875,0)" xlink:href="#y"/><use transform="matrix(0.010850694444444444,0,0,0.010850694444444444,22.67795138888889,0)" xlink:href="#E"/><use transform="matrix(0.010850694444444444,0,0,0.010850694444444444,38.91059027777778,0)" xlink:href="#W"/><use transform="matrix(0.010850694444444444,0,0,0.010850694444444444,58.984375,0)" xlink:href="#Z"/></g><path d="M158 418v-1536h174v179h20c37-59 106-193 324-193 279 0 474 222 474 576 0 356-194 580-473 580-213 0-288-135-325-197h-14v591H158zm492-555c209 0 317-186 317-421 0-232-105-413-317-413-206 0-314 166-314 413 0 249 111 421 314 421" id="aa"/><g id="l"><use transform="matrix(0.010850694444444444,0,0,0.010850694444444444,0,0)" xlink:href="#S"/><use transform="matrix(0.010850694444444444,0,0,0.010850694444444444,14.2578125,0)" xlink:href="#T"/><use transform="matrix(0.010850694444444444,0,0,0.010850694444444444,19.639756944444443,0)" xlink:href="#z"/><use transform="matrix(0.010850694444444444,0,0,0.010850694444444444,39.10590277777777,0)" xlink:href="#aa"/><use transform="matrix(0.010850694444444444,0,0,0.010850694444444444,52.7126736111111,0)" xlink:href="#F"/><use transform="matrix(0.010850694444444444,0,0,0.010850694444444444,58.09461805555554,0)" xlink:href="#M"/></g><g id="m"><use transform="matrix(0.010850694444444444,0,0,0.010850694444444444,0,0)" xlink:href="#S"/><use transform="matrix(0.010850694444444444,0,0,0.010850694444444444,14.2578125,0)" xlink:href="#K"/><use transform="matrix(0.010850694444444444,0,0,0.010850694444444444,21.31076388888889,0)" xlink:href="#C"/><use transform="matrix(0.010850694444444444,0,0,0.010850694444444444,34.635416666666664,0)" xlink:href="#J"/><use transform="matrix(0.010850694444444444,0,0,0.010850694444444444,43.00130208333333,0)" xlink:href="#A"/><use transform="matrix(0.010850694444444444,0,0,0.010850694444444444,55.47960069444444,0)" xlink:href="#X"/><use transform="matrix(0.010850694444444444,0,0,0.010850694444444444,69.10807291666666,0)" xlink:href="#M"/></g><path d="M481 0L54-1118h197c107 314 236 620 325 951 87-331 217-637 324-951h197L670 0H481" id="ab"/><g id="n"><use transform="matrix(0.010850694444444444,0,0,0.010850694444444444,0,0)" xlink:href="#S"/><use transform="matrix(0.010850694444444444,0,0,0.010850694444444444,14.2578125,0)" xlink:href="#M"/><use transform="matrix(0.010850694444444444,0,0,0.010850694444444444,27.213541666666664,0)" xlink:href="#J"/><use transform="matrix(0.010850694444444444,0,0,0.010850694444444444,35.92664930555555,0)" xlink:href="#ab"/><use transform="matrix(0.010850694444444444,0,0,0.010850694444444444,48.41579861111111,0)" xlink:href="#T"/><use transform="matrix(0.010850694444444444,0,0,0.010850694444444444,53.79774305555556,0)" xlink:href="#V"/><use transform="matrix(0.010850694444444444,0,0,0.010850694444444444,66.49305555555554,0)" xlink:href="#M"/></g><g id="o"><use transform="matrix(0.010850694444444444,0,0,0.010850694444444444,0,0)" xlink:href="#Y"/><use transform="matrix(0.010850694444444444,0,0,0.010850694444444444,8.10546875,0)" xlink:href="#y"/><use transform="matrix(0.010850694444444444,0,0,0.010850694444444444,23.4375,0)" xlink:href="#z"/><use transform="matrix(0.010850694444444444,0,0,0.010850694444444444,42.90364583333333,0)" xlink:href="#A"/><use transform="matrix(0.010850694444444444,0,0,0.010850694444444444,55.38194444444444,0)" xlink:href="#B"/><use transform="matrix(0.010850694444444444,0,0,0.010850694444444444,67.32855902777777,0)" xlink:href="#C"/><use transform="matrix(0.010850694444444444,0,0,0.010850694444444444,80.65321180555554,0)" xlink:href="#D"/></g><g id="p"><use transform="matrix(0.010850694444444444,0,0,0.010850694444444444,0,0)" xlink:href="#S"/><use transform="matrix(0.010850694444444444,0,0,0.010850694444444444,14.2578125,0)" xlink:href="#O"/><use transform="matrix(0.010850694444444444,0,0,0.010850694444444444,27.98394097222222,0)" xlink:href="#Z"/></g><g id="q"><use transform="matrix(0.010850694444444444,0,0,0.010850694444444444,0,0)" xlink:href="#y"/><use transform="matrix(0.010850694444444444,0,0,0.010850694444444444,14.073350694444445,0)" xlink:href="#R"/><use transform="matrix(0.010850694444444444,0,0,0.010850694444444444,35.970052083333336,0)" xlink:href="#S"/></g><path d="M180 0v-1490h190v1322h690V0H180" id="ac"/><path d="M677 24c-213 0-288-135-325-197h-20V0H158v-1490h180v551h14c37-59 106-193 324-193 279 0 474 222 474 576 0 356-194 580-473 580zm-27-161c209 0 317-186 317-421 0-232-105-413-317-413-206 0-314 166-314 413 0 249 111 421 314 421" id="ad"/><g id="r"><use transform="matrix(0.010850694444444444,0,0,0.010850694444444444,0,0)" xlink:href="#ac"/><use transform="matrix(0.010850694444444444,0,0,0.010850694444444444,12.565104166666666,0)" xlink:href="#A"/><use transform="matrix(0.010850694444444444,0,0,0.010850694444444444,25.04340277777778,0)" xlink:href="#z"/><use transform="matrix(0.010850694444444444,0,0,0.010850694444444444,44.50954861111111,0)" xlink:href="#ad"/><use transform="matrix(0.010850694444444444,0,0,0.010850694444444444,58.11631944444444,0)" xlink:href="#H"/><use transform="matrix(0.010850694444444444,0,0,0.010850694444444444,71.72309027777777,0)" xlink:href="#A"/></g><g id="s"><use transform="matrix(0.010850694444444444,0,0,0.010850694444444444,0,0)" xlink:href="#y"/><use transform="matrix(0.010850694444444444,0,0,0.010850694444444444,15.33203125,0)" xlink:href="#z"/><use transform="matrix(0.010850694444444444,0,0,0.010850694444444444,34.79817708333333,0)" xlink:href="#A"/><use transform="matrix(0.010850694444444444,0,0,0.010850694444444444,47.27647569444444,0)" xlink:href="#B"/><use transform="matrix(0.010850694444444444,0,0,0.010850694444444444,59.22309027777778,0)" xlink:href="#C"/><use transform="matrix(0.010850694444444444,0,0,0.010850694444444444,72.54774305555554,0)" xlink:href="#D"/></g><path d="M180 0v-1490h510c348 0 508 209 508 474 0 266-160 477-507 477H370V0H180zm190-706h312c236 0 327-133 327-310 0-176-91-307-329-307H370v617" id="ae"/><path d="M370-1490V0H180v-1490h190" id="af"/><g id="t"><use transform="matrix(0.010850694444444444,0,0,0.010850694444444444,0,0)" xlink:href="#y"/><use transform="matrix(0.010850694444444444,0,0,0.010850694444444444,15.33203125,0)" xlink:href="#ae"/><use transform="matrix(0.010850694444444444,0,0,0.010850694444444444,29.524739583333332,0)" xlink:href="#af"/></g><path d="M789 20c-398 0-667-293-667-764 0-473 273-766 655-766 315 0 558 198 612 487h-196c-61-191-204-311-415-311-262 0-471 207-471 590 0 380 208 588 482 588 249 0 420-165 425-427H828v-166h572v163c0 370-256 606-611 606" id="ag"/><path d="M409 0L70-1118h191c89 329 165 560 243 925 75-353 154-601 240-925h192c85 325 161 564 235 922 77-354 157-598 244-922h191L1267 0h-179c-86-307-176-590-250-913C763-588 675-308 588 0H409" id="ah"/><path d="M140 405l46-156c120 36 205 19 263-150l32-93L54-1118h197c107 313 237 620 324 950 87-331 219-637 326-950h196L606 167c-68 178-176 259-334 259-64 0-113-12-132-21" id="ai"/><g id="u"><use transform="matrix(0.010850694444444444,0,0,0.010850694444444444,0,0)" xlink:href="#ag"/><use transform="matrix(0.010850694444444444,0,0,0.010850694444444444,16.57986111111111,0)" xlink:href="#A"/><use transform="matrix(0.010850694444444444,0,0,0.010850694444444444,29.05815972222222,0)" xlink:href="#K"/><use transform="matrix(0.010850694444444444,0,0,0.010850694444444444,36.11111111111111,0)" xlink:href="#M"/><use transform="matrix(0.010850694444444444,0,0,0.010850694444444444,48.66536458333333,0)" xlink:href="#ah"/><use transform="matrix(0.010850694444444444,0,0,0.010850694444444444,66.85112847222221,0)" xlink:href="#A"/><use transform="matrix(0.010850694444444444,0,0,0.010850694444444444,79.00390625,0)" xlink:href="#ai"/></g><g id="v"><use transform="matrix(0.010850694444444444,0,0,0.010850694444444444,0,0)" xlink:href="#E"/><use transform="matrix(0.010850694444444444,0,0,0.010850694444444444,16.23263888888889,0)" xlink:href="#C"/><use transform="matrix(0.010850694444444444,0,0,0.010850694444444444,29.557291666666664,0)" xlink:href="#X"/><use transform="matrix(0.010850694444444444,0,0,0.010850694444444444,43.185763888888886,0)" xlink:href="#D"/><use transform="matrix(0.010850694444444444,0,0,0.010850694444444444,56.315104166666664,0)" xlink:href="#T"/><use transform="matrix(0.010850694444444444,0,0,0.010850694444444444,61.69704861111111,0)" xlink:href="#K"/><use transform="matrix(0.010850694444444444,0,0,0.010850694444444444,68.75,0)" xlink:href="#C"/></g><g id="w"><use transform="matrix(0.010850694444444444,0,0,0.010850694444444444,0,0)" xlink:href="#y"/><use transform="matrix(0.010850694444444444,0,0,0.010850694444444444,15.33203125,0)" xlink:href="#z"/><use transform="matrix(0.010850694444444444,0,0,0.010850694444444444,34.79817708333333,0)" xlink:href="#A"/><use transform="matrix(0.010850694444444444,0,0,0.010850694444444444,47.27647569444444,0)" xlink:href="#B"/><use transform="matrix(0.010850694444444444,0,0,0.010850694444444444,59.22309027777778,0)" xlink:href="#C"/><use transform="matrix(0.010850694444444444,0,0,0.010850694444444444,72.54774305555554,0)" xlink:href="#D"/></g><path d="M645 0H180v-1490h484c435 0 692 280 692 742 0 466-257 748-711 748zM370-168h263c363 0 539-218 539-580 0-358-176-574-521-574H370v1154" id="aj"/><path d="M180 0v-1490h528c311 0 458 177 458 395 0 191-114 278-244 313v14c139 9 302 137 302 371 0 225-148 397-499 397H180zm190-168h350c232 0 321-102 321-231 0-149-120-277-311-277H370v508zm0-668h328c160 0 286-101 286-255 0-129-87-231-280-231H370v486" id="ak"/><g id="x"><use transform="matrix(0.010850694444444444,0,0,0.010850694444444444,0,0)" xlink:href="#aj"/><use transform="matrix(0.010850694444444444,0,0,0.010850694444444444,16.03732638888889,0)" xlink:href="#ai"/><use transform="matrix(0.010850694444444444,0,0,0.010850694444444444,28.526475694444443,0)" xlink:href="#D"/><use transform="matrix(0.010850694444444444,0,0,0.010850694444444444,41.65581597222222,0)" xlink:href="#A"/><use transform="matrix(0.010850694444444444,0,0,0.010850694444444444,54.13411458333333,0)" xlink:href="#z"/><use transform="matrix(0.010850694444444444,0,0,0.010850694444444444,73.60026041666666,0)" xlink:href="#C"/><use transform="matrix(0.010850694444444444,0,0,0.010850694444444444,86.92491319444443,0)" xlink:href="#aj"/><use transform="matrix(0.010850694444444444,0,0,0.010850694444444444,102.96223958333331,0)" xlink:href="#ak"/></g></defs></g></svg>